# xmcd
#
# Track frame offsets:
#	150
#	22690
#	40736
#	57917
#	72978
#	95624
#	114202
#	134185
#	146879
#	168426
#	186100
#	215914
#	237419
#
# Disc length: 3447 seconds
#
# Revision: 0
# Processed by: cddbd v1.4PL0 Copyright (c) Steve Scherf et al.
# Submitted via: EasyCDDAExtractor 4.6.9.1
#
DISCID=c20d750d
DTITLE=Raymond Froggatt - Songwriter
DYEAR=1900
DGENRE=Country
TTITLE0=Cool cool day
TTITLE1=Deal the cards
TTITLE2=You think it's alright
TTITLE3=The trouble with love
TTITLE4=All along the road
TTITLE5=Run free
TTITLE6=Always make me blue
TTITLE7=Goodbye my star
TTITLE8=The rose
TTITLE9=Stop
TTITLE10=The crowd called out for more
TTITLE11=Bedsit Dreams
TTITLE12=Follow the sun and run
EXTD=
EXTT0=
EXTT1=
EXTT2=
EXTT3=
EXTT4=
EXTT5=
EXTT6=
EXTT7=
EXTT8=
EXTT9=
EXTT10=
EXTT11=
EXTT12=
PLAYORDER=
